<?xml version="1.0" encoding="UTF-8" standalone="no"?>
<!-- Created with Inkscape (http://www.inkscape.org/) -->

<svg
   width="210mm"
   height="297mm"
   viewBox="0 0 210 297"
   version="1.1"
   id="svg5"
   inkscape:version="1.1 (c68e22c387, 2021-05-23)"
   sodipodi:docname="alix.svg"
   xmlns:inkscape="http://www.inkscape.org/namespaces/inkscape"
   xmlns:sodipodi="http://sodipodi.sourceforge.net/DTD/sodipodi-0.dtd"
   xmlns="http://www.w3.org/2000/svg"
   xmlns:svg="http://www.w3.org/2000/svg">
  <sodipodi:namedview
     id="namedview7"
     pagecolor="#505050"
     bordercolor="#eeeeee"
     borderopacity="1"
     inkscape:pageshadow="0"
     inkscape:pageopacity="0"
     inkscape:pagecheckerboard="0"
     inkscape:document-units="mm"
     showgrid="true"
     inkscape:zoom="0.76435185"
     inkscape:cx="141.29618"
     inkscape:cy="760.77529"
     inkscape:window-width="1920"
     inkscape:window-height="1017"
     inkscape:window-x="-8"
     inkscape:window-y="-8"
     inkscape:window-maximized="1"
     inkscape:current-layer="layer1">
    <inkscape:grid
       type="xygrid"
       id="grid824"
       spacingx="10"
       spacingy="10" />
  </sodipodi:namedview>
  <defs
     id="defs2" />
  <g
     inkscape:label="Calque 1"
     inkscape:groupmode="layer"
     id="layer1">
    <rect
       style="font-variation-settings:'wdth' 81.7, 'wght' 700;opacity:0.983278;fill:#333333;fill-opacity:1;stroke:none;stroke-width:1.265;stroke-linecap:round;stroke-linejoin:round;stroke-dashoffset:0.529134;stroke-opacity:1;paint-order:stroke fill markers"
       id="rect5446"
       width="180"
       height="180"
       x="-40"
       y="100"
       ry="1.421085e-14" />
    <path
       style="fill:#333333;stroke:#000000;stroke-width:0.264583px;stroke-linecap:butt;stroke-linejoin:miter;stroke-opacity:1"
       d="m -10,240 -10,10 v 29.99999 H 120 V 250 L 110,240 59.999998,250 -10,240"
       id="path5195"
       inkscape:export-filename="C:\Users\kduclos\Downloads\unionskateboard-main(1)\unionskateboard-main\img\alix.png"
       inkscape:export-xdpi="90"
       inkscape:export-ydpi="90" />
    <path
       style="fill:#1a1a1a;stroke:#000000;stroke-width:0.264583px;stroke-linecap:butt;stroke-linejoin:miter;stroke-opacity:1"
       d="m 20,210 c -18.201979,3.3671 -26.4999525,14.74352 -30,30 0,0 30,20 49.999999,20 H 50 c 0,0 9.999998,0 9.999998,9.99999 0,10 0,0 0,0 0,0 0,-9.99999 10.000001,-9.99999 C 79.999998,260 110,240 110,240 c 0,0 -10,-30 -30.000002,-30 z"
       id="path5004"
       sodipodi:nodetypes="ccscscscsc"
       inkscape:export-filename="C:\Users\kduclos\Downloads\unionskateboard-main(1)\unionskateboard-main\img\alix.png"
       inkscape:export-xdpi="90"
       inkscape:export-ydpi="90" />
    <path
       style="fill:#deaa87;stroke:none;stroke-width:0.264583px;stroke-linecap:butt;stroke-linejoin:miter;stroke-opacity:1;fill-opacity:1"
       d="m 20,200 v 20 L 10,230 59.999998,250 89.999999,240 79.999998,230 V 210 L 20,200"
       id="path3447"
       inkscape:export-filename="C:\Users\kduclos\Downloads\unionskateboard-main(1)\unionskateboard-main\img\alix.png"
       inkscape:export-xdpi="90"
       inkscape:export-ydpi="90" />
    <path
       style="fill:#ffccaa;stroke:none;stroke-width:0.264583px;stroke-linecap:butt;stroke-linejoin:miter;stroke-opacity:1"
       d="m 59.999998,220 h 20 L 100,200 V 150 L 89.999999,130 h -50 H 30 l -10,20 v 50 l 39.999998,20"
       id="path1286"
       inkscape:export-filename="C:\Users\kduclos\Downloads\unionskateboard-main(1)\unionskateboard-main\img\alix.png"
       inkscape:export-xdpi="90"
       inkscape:export-ydpi="90" />
    <circle
       style="font-variation-settings:'wdth' 81.7, 'wght' 700;opacity:0.983278;fill:#000000;stroke:none;stroke-width:1.265;stroke-linecap:round;stroke-linejoin:round;stroke-dashoffset:0.529134;paint-order:stroke fill markers"
       id="path1091"
       cx="45"
       cy="165"
       r="5"
       inkscape:export-filename="C:\Users\kduclos\Downloads\unionskateboard-main(1)\unionskateboard-main\img\alix.png"
       inkscape:export-xdpi="90"
       inkscape:export-ydpi="90" />
    <circle
       style="font-variation-settings:'wdth' 81.7, 'wght' 700;opacity:0.983278;fill:#000000;stroke:none;stroke-width:1.265;stroke-linecap:round;stroke-linejoin:round;stroke-dashoffset:0.529134;paint-order:stroke fill markers"
       id="path1115"
       cx="85"
       cy="165"
       r="5"
       inkscape:export-filename="C:\Users\kduclos\Downloads\unionskateboard-main(1)\unionskateboard-main\img\alix.png"
       inkscape:export-xdpi="90"
       inkscape:export-ydpi="90" />
    <path
       style="fill:#deaa87;stroke:none;stroke-width:0.264583px;stroke-linecap:butt;stroke-linejoin:miter;stroke-opacity:1"
       d="m 69.999999,170 9.999999,20 h -9.999999 v -20"
       id="path1150"
       inkscape:export-filename="C:\Users\kduclos\Downloads\unionskateboard-main(1)\unionskateboard-main\img\alix.png"
       inkscape:export-xdpi="90"
       inkscape:export-ydpi="90" />
    <path
       style="fill:#241c1c;stroke:none;stroke-width:0.264583px;stroke-linecap:butt;stroke-linejoin:miter;stroke-opacity:1"
       d="M 69.999999,190 H 50 l -10.000001,10 h 50 L 79.999998,190 h -9.999999"
       id="path1185"
       inkscape:export-filename="C:\Users\kduclos\Downloads\unionskateboard-main(1)\unionskateboard-main\img\alix.png"
       inkscape:export-xdpi="90"
       inkscape:export-ydpi="90" />
    <path
       style="fill:#241c1c;stroke:none;stroke-width:0.264583px;stroke-linecap:butt;stroke-linejoin:miter;stroke-opacity:1"
       d="m 30,160 v 20 l -10,10 v 10 c 0,0 0,10 -10,10 H 0 L 10.346154,200.48077 10,200 c 0,0 -20,0 -20,-10 0,-10 0,0 0,0 0,0 10,0 10,-10 v -30 h 20 l 10,10"
       id="path1452"
       sodipodi:nodetypes="ccccscscscsccc"
       inkscape:export-filename="C:\Users\kduclos\Downloads\unionskateboard-main(1)\unionskateboard-main\img\alix.png"
       inkscape:export-xdpi="90"
       inkscape:export-ydpi="90" />
    <path
       style="fill:#2a7fff;stroke:none;stroke-width:0.264583px;stroke-linecap:butt;stroke-linejoin:miter;stroke-opacity:1"
       d="M 50,140 H 0 C 0,140 0,99.999999 50,99.999999 100,99.999999 100,140 100,140"
       id="path1588"
       inkscape:export-filename="C:\Users\kduclos\Downloads\unionskateboard-main(1)\unionskateboard-main\img\alix.png"
       inkscape:export-xdpi="90"
       inkscape:export-ydpi="90" />
    <rect
       style="font-variation-settings:'wdth' 81.7, 'wght' 700;opacity:0.983278;fill:#0055d4;stroke:#0457d4;stroke-width:1.265;stroke-linecap:round;stroke-linejoin:round;stroke-dashoffset:0.529134;paint-order:stroke fill markers;stroke-opacity:1"
       id="rect1509"
       width="100"
       height="20"
       x="3.459159e-13"
       y="140"
       ry="1.421085e-14"
       inkscape:export-filename="C:\Users\kduclos\Downloads\unionskateboard-main(1)\unionskateboard-main\img\alix.png"
       inkscape:export-xdpi="90"
       inkscape:export-ydpi="90" />
  </g>
</svg>
