<?xml version="1.0" encoding="UTF-8" standalone="no"?>
<!-- Created with Inkscape (http://www.inkscape.org/) -->

<svg
   width="210mm"
   height="297mm"
   viewBox="0 0 210 297"
   version="1.1"
   id="svg5"
   inkscape:version="1.1 (c68e22c387, 2021-05-23)"
   sodipodi:docname="bezou.svg"
   inkscape:export-filename="C:\Users\kduclos\Downloads\unionskateboard-main(2)\unionskateboard-main\img\bezou.png"
   inkscape:export-xdpi="90"
   inkscape:export-ydpi="90"
   xmlns:inkscape="http://www.inkscape.org/namespaces/inkscape"
   xmlns:sodipodi="http://sodipodi.sourceforge.net/DTD/sodipodi-0.dtd"
   xmlns="http://www.w3.org/2000/svg"
   xmlns:svg="http://www.w3.org/2000/svg">
  <sodipodi:namedview
     id="namedview7"
     pagecolor="#505050"
     bordercolor="#eeeeee"
     borderopacity="1"
     inkscape:pageshadow="0"
     inkscape:pageopacity="0"
     inkscape:pagecheckerboard="0"
     inkscape:document-units="mm"
     showgrid="true"
     inkscape:zoom="0.54047838"
     inkscape:cx="671.62724"
     inkscape:cy="794.66639"
     inkscape:window-width="1920"
     inkscape:window-height="1017"
     inkscape:window-x="-8"
     inkscape:window-y="-8"
     inkscape:window-maximized="1"
     inkscape:current-layer="layer1"
     inkscape:snap-nodes="true">
    <inkscape:grid
       type="xygrid"
       id="grid824"
       spacingx="10"
       spacingy="10" />
  </sodipodi:namedview>
  <defs
     id="defs2" />
  <g
     inkscape:label="Calque 1"
     inkscape:groupmode="layer"
     id="layer1">
    <path
       style="fill:#782121;stroke:none;stroke-width:0.264583px;stroke-linecap:butt;stroke-linejoin:miter;stroke-opacity:1"
       d="m -10,240 -10,10 v 29.99999 H 120 V 250 L 110,240 59.999998,250 -10,240"
       id="path5195"
       inkscape:export-filename="C:\Users\kduclos\Downloads\unionskateboard-main(1)\unionskateboard-main\img\alix.png"
       inkscape:export-xdpi="90"
       inkscape:export-ydpi="90" />
    <path
       style="fill:#501616;stroke:none;stroke-width:0.264583px;stroke-linecap:butt;stroke-linejoin:miter;stroke-opacity:1"
       d="m 20,210 c -18.201979,3.3671 -26.4999525,14.74352 -30,30 0,0 30,20 49.999999,20 H 50 c 0,0 9.999998,0 9.999998,9.99999 0,10 0,0 0,0 0,0 0,-9.99999 10.000001,-9.99999 C 79.999998,260 110,240 110,240 c 0,0 -10,-30 -30.000002,-30 z"
       id="path5004"
       sodipodi:nodetypes="ccscscscsc"
       inkscape:export-filename="C:\Users\kduclos\Downloads\unionskateboard-main(1)\unionskateboard-main\img\alix.png"
       inkscape:export-xdpi="90"
       inkscape:export-ydpi="90" />
    <path
       style="fill:#deaa87;stroke:none;stroke-width:0.264583px;stroke-linecap:butt;stroke-linejoin:miter;stroke-opacity:1;fill-opacity:1"
       d="m 20,200 v 20 L 10,230 59.999998,250 89.999999,240 79.999998,230 V 210 L 20,200"
       id="path3447"
       inkscape:export-filename="C:\Users\kduclos\Downloads\unionskateboard-main(1)\unionskateboard-main\img\alix.png"
       inkscape:export-xdpi="90"
       inkscape:export-ydpi="90" />
    <path
       style="fill:#ffccaa;stroke:none;stroke-width:0.264583px;stroke-linecap:butt;stroke-linejoin:miter;stroke-opacity:1"
       d="m 59.999998,220 h 20 L 100,200 V 150 L 89.999999,130 h -50 H 30 l -10,20 v 50 l 39.999998,20"
       id="path1286"
       inkscape:export-filename="C:\Users\kduclos\Downloads\unionskateboard-main(1)\unionskateboard-main\img\alix.png"
       inkscape:export-xdpi="90"
       inkscape:export-ydpi="90" />
    <circle
       style="font-variation-settings:'wdth' 81.7, 'wght' 700;opacity:0.983278;fill:#000000;stroke:none;stroke-width:1.265;stroke-linecap:round;stroke-linejoin:round;stroke-dashoffset:0.529134;paint-order:stroke fill markers"
       id="path1091"
       cx="45"
       cy="165"
       r="5"
       inkscape:export-filename="C:\Users\kduclos\Downloads\unionskateboard-main(1)\unionskateboard-main\img\alix.png"
       inkscape:export-xdpi="90"
       inkscape:export-ydpi="90" />
    <circle
       style="font-variation-settings:'wdth' 81.7, 'wght' 700;opacity:0.983278;fill:#000000;stroke:none;stroke-width:1.265;stroke-linecap:round;stroke-linejoin:round;stroke-dashoffset:0.529134;paint-order:stroke fill markers"
       id="path1115"
       cx="85"
       cy="165"
       r="5"
       inkscape:export-filename="C:\Users\kduclos\Downloads\unionskateboard-main(1)\unionskateboard-main\img\alix.png"
       inkscape:export-xdpi="90"
       inkscape:export-ydpi="90" />
    <path
       style="fill:#deaa87;stroke:none;stroke-width:0.264583px;stroke-linecap:butt;stroke-linejoin:miter;stroke-opacity:1"
       d="m 69.999999,170 9.999999,20 h -9.999999 v -20"
       id="path1150"
       inkscape:export-filename="C:\Users\kduclos\Downloads\unionskateboard-main(1)\unionskateboard-main\img\alix.png"
       inkscape:export-xdpi="90"
       inkscape:export-ydpi="90" />
    <path
       style="fill:#502d16;stroke:none;stroke-width:0.264583px;stroke-linecap:butt;stroke-linejoin:miter;stroke-opacity:1"
       d="m 20,200 c 0,0 -10,0 -10,-10 0,-10 0,0 0,0 0,0 -10,0 -10,-10 0,-10 0,-10 0,-10 0,0 -10,0 -10,-10 0,-10 10,-10 10,-10 0,0 -10,0 -10,-10 0,-10 10,-10 10,-10 0,0 0,-10 10,-10 10,0 0,0 0,0 0,0 0,-10 10,-10 10,0 0,0 0,0 0,0 0,-10 10,-10 9.999999,0 0,0 0,0 0,0 0,-10.000001 9.999999,-10.000001 10.000001,0 0,0 0,0 0,0 0,-10.000001 10.000001,-10.000001 9.999998,0 9.999998,10.000001 9.999998,10.000001 0,0 10.000001,0 10.000001,10.000001 0,10 0,0 0,0 0,0 0,-10.000001 9.999999,-10.000001 10.000001,0 10.000001,10.000001 10.000001,10.000001 0,0 10.000001,0 10.000001,10 0,10 0,0 0,0 0,0 10,0 10,10 0,10 0,0 0,0 0,0 10,0 10,10 0,10 -10,10 -10,10 0,0 10,0 10,10 0,10 -10,10 -10,10 v 10 c 0,0 0,10 -10,10 -10.000001,0 0,0 0,0 v -30 c 0,0 -10.000001,0 -10.000001,-10 0,-10 -10.000001,-10 -10.000001,-10 0,0 0,10 -9.999999,10 -10.000001,0 -10.000001,-10 -10.000001,-10 0,0 0,10 -9.999998,10 -10.000001,0 -10.000001,0 -10.000001,0 0,0 0,10 -9.999999,10 -10,0 -10,10 -10,10 v 40"
       id="path1186" />
    <circle
       style="font-variation-settings:'wdth' 81.7, 'wght' 700;opacity:0.983278;fill:#ffffff;fill-opacity:0.45189;stroke:#000000;stroke-width:1.265;stroke-linecap:round;stroke-linejoin:round;stroke-dashoffset:0.529134;paint-order:stroke fill markers;stroke-opacity:1;stroke-miterlimit:4;stroke-dasharray:none"
       id="path1341"
       cx="45"
       cy="165"
       r="15" />
    <circle
       style="font-variation-settings:'wdth' 81.7, 'wght' 700;opacity:0.983278;fill:#ffffff;fill-opacity:0.45189;stroke:#000000;stroke-width:1.265;stroke-linecap:round;stroke-linejoin:round;stroke-miterlimit:4;stroke-dasharray:none;stroke-dashoffset:0.529134;stroke-opacity:1;paint-order:stroke fill markers"
       id="path1491"
       cx="85"
       cy="165"
       r="15" />
    <path
       id="path1606"
       style="fill:#502d16;fill-opacity:1;stroke:none;stroke-width:0.999999px;stroke-linecap:butt;stroke-linejoin:miter;stroke-opacity:1"
       d="M 75.589844 680.31445 L 75.589844 755.90625 L 226.77148 831.49609 L 302.36133 831.49609 L 377.95312 755.90625 L 340.1582 755.90625 L 302.36133 718.10938 L 226.77148 718.10938 L 188.97656 755.90625 L 151.18164 755.90625 L 113.38672 718.10938 L 75.589844 680.31445 z M 226.77148 755.90625 L 302.36133 755.90625 L 302.36133 793.70117 L 226.77148 793.70117 L 226.77148 755.90625 z "
       transform="scale(0.26458333)" />
    <path
       style="fill:#000000;stroke:#000000;stroke-width:0.106378px;stroke-linecap:butt;stroke-linejoin:miter;stroke-opacity:1"
       d="m 59.920896,165.67328 c 10.158205,0 10.158205,0 10.158205,0 v -1.59133 H 59.920896 Z"
       id="path3478" />
    <path
       style="fill:#000000;stroke:#000000;stroke-width:0.106378px;stroke-linecap:butt;stroke-linejoin:miter;stroke-opacity:1"
       d="m 19.704205,165.67328 c 10.158205,0 10.158205,0 10.158205,0 v -1.59133 H 19.704205 Z"
       id="path3706" />
  </g>
</svg>
