<?xml version="1.0" encoding="UTF-8" standalone="no"?>
<!-- Created with Inkscape (http://www.inkscape.org/) -->

<svg
   width="210mm"
   height="297mm"
   viewBox="0 0 210 297"
   version="1.1"
   id="svg5"
   inkscape:version="1.1 (c68e22c387, 2021-05-23)"
   sodipodi:docname="kilian.svg"
   inkscape:export-filename="C:\Users\kduclos\Downloads\unionskateboard-main(2)\unionskateboard-main\img\kilian.png"
   inkscape:export-xdpi="90"
   inkscape:export-ydpi="90"
   xmlns:inkscape="http://www.inkscape.org/namespaces/inkscape"
   xmlns:sodipodi="http://sodipodi.sourceforge.net/DTD/sodipodi-0.dtd"
   xmlns="http://www.w3.org/2000/svg"
   xmlns:svg="http://www.w3.org/2000/svg">
  <sodipodi:namedview
     id="namedview7"
     pagecolor="#505050"
     bordercolor="#eeeeee"
     borderopacity="1"
     inkscape:pageshadow="0"
     inkscape:pageopacity="0"
     inkscape:pagecheckerboard="0"
     inkscape:document-units="mm"
     showgrid="true"
     inkscape:zoom="0.76435185"
     inkscape:cx="28.782556"
     inkscape:cy="760.77529"
     inkscape:window-width="1920"
     inkscape:window-height="1017"
     inkscape:window-x="-8"
     inkscape:window-y="-8"
     inkscape:window-maximized="1"
     inkscape:current-layer="layer1">
    <inkscape:grid
       type="xygrid"
       id="grid824"
       spacingx="10"
       spacingy="10" />
  </sodipodi:namedview>
  <defs
     id="defs2" />
  <g
     inkscape:label="Calque 1"
     inkscape:groupmode="layer"
     id="layer1">
    <path
       style="fill:#deaa87;stroke:none;stroke-width:0.264583px;stroke-linecap:butt;stroke-linejoin:miter;stroke-opacity:1;fill-opacity:1"
       d="m 20,200 v 20 L 10,230 59.999998,250 89.999999,240 79.999998,230 V 210 L 20,200"
       id="path3447"
       inkscape:export-filename="C:\Users\kduclos\Downloads\unionskateboard-main(1)\unionskateboard-main\img\alix.png"
       inkscape:export-xdpi="90"
       inkscape:export-ydpi="90" />
    <path
       style="fill:#ffccaa;stroke:none;stroke-width:0.264583px;stroke-linecap:butt;stroke-linejoin:miter;stroke-opacity:1"
       d="m 59.999998,220 h 20 L 100,200 V 150 L 89.999999,130 h -50 H 30 l -10,20 v 50 l 39.999998,20"
       id="path1286"
       inkscape:export-filename="C:\Users\kduclos\Downloads\unionskateboard-main(1)\unionskateboard-main\img\alix.png"
       inkscape:export-xdpi="90"
       inkscape:export-ydpi="90" />
    <circle
       style="font-variation-settings:'wdth' 81.7, 'wght' 700;opacity:0.983278;fill:#000000;stroke:none;stroke-width:1.265;stroke-linecap:round;stroke-linejoin:round;stroke-dashoffset:0.529134;paint-order:stroke fill markers"
       id="path1091"
       cx="45"
       cy="165"
       r="5"
       inkscape:export-filename="C:\Users\kduclos\Downloads\unionskateboard-main(1)\unionskateboard-main\img\alix.png"
       inkscape:export-xdpi="90"
       inkscape:export-ydpi="90" />
    <circle
       style="font-variation-settings:'wdth' 81.7, 'wght' 700;opacity:0.983278;fill:#000000;stroke:none;stroke-width:1.265;stroke-linecap:round;stroke-linejoin:round;stroke-dashoffset:0.529134;paint-order:stroke fill markers"
       id="path1115"
       cx="85"
       cy="165"
       r="5"
       inkscape:export-filename="C:\Users\kduclos\Downloads\unionskateboard-main(1)\unionskateboard-main\img\alix.png"
       inkscape:export-xdpi="90"
       inkscape:export-ydpi="90" />
    <path
       style="fill:#deaa87;stroke:none;stroke-width:0.264583px;stroke-linecap:butt;stroke-linejoin:miter;stroke-opacity:1"
       d="m 69.999999,170 9.999999,20 h -9.999999 v -20"
       id="path1150"
       inkscape:export-filename="C:\Users\kduclos\Downloads\unionskateboard-main(1)\unionskateboard-main\img\alix.png"
       inkscape:export-xdpi="90"
       inkscape:export-ydpi="90" />
    <path
       style="fill:#241c1c;stroke:none;stroke-width:0.264583px;stroke-linecap:butt;stroke-linejoin:miter;stroke-opacity:1"
       d="M 69.999999,190 H 50 l -10.000001,10 h 50 L 79.999998,190 h -9.999999"
       id="path1185"
       inkscape:export-filename="C:\Users\kduclos\Downloads\unionskateboard-main(1)\unionskateboard-main\img\alix.png"
       inkscape:export-xdpi="90"
       inkscape:export-ydpi="90" />
    <path
       style="fill:#241c1c;stroke:none;stroke-width:0.229136px;stroke-linecap:butt;stroke-linejoin:miter;stroke-opacity:1"
       d="m 30,140 v 20 l -7.5,10 v 10 c 0,0 0,10 -7.5,10 H 7.5 L 15.259616,180.48077 15,180 c 0,0 -15,0 -15,-10 0,-10 0,0 0,0 0,0 7.5,0 7.5,-10 L 10,140 22.5,130 30,140"
       id="path1452"
       sodipodi:nodetypes="ccccscscscsccc"
       inkscape:export-filename="C:\Users\kduclos\Downloads\unionskateboard-main(1)\unionskateboard-main\img\alix.png"
       inkscape:export-xdpi="90"
       inkscape:export-ydpi="90" />
    <path
       id="path1141"
       style="fill:#f2f2f2;stroke:none;stroke-width:0.999999px;stroke-linecap:butt;stroke-linejoin:miter;stroke-opacity:1"
       d="M 37.794922 869.29102 L -75.589844 907.08594 L -75.589844 1058.2676 L 415.74805 1058.2676 L 415.74805 907.08594 L 302.36133 869.29102 L 340.1582 907.08594 L 226.77148 944.88281 L 37.794922 869.29102 z "
       transform="scale(0.26458333)" />
    <path
       style="fill:#241c1c;stroke:#000000;stroke-width:0.264583px;stroke-linecap:butt;stroke-linejoin:miter;stroke-opacity:1"
       d="m 30,160 v 30 L 39.999999,200 50,210 h 9.999998 20 L 100,200 c 0,0 -10.000001,20 -20.000002,20 -9.999999,0 -20,0 -20,0 0,0 -19.999999,0 -29.999998,-10 C 20,200 20,200 20,200 v -30 z"
       id="path1549" />
    <path
       style="fill:#333333;stroke:#000000;stroke-width:0.264583px;stroke-linecap:butt;stroke-linejoin:miter;stroke-opacity:1"
       d="M 39.999999,150 H 10 v -10 c 0,0 0,-30 49.999998,-30 C 110,110 100,150 100,150 H 39.999999"
       id="path2060" />
    <path
       style="fill:#666666;stroke:#000000;stroke-width:0.264583px;stroke-linecap:butt;stroke-linejoin:miter;stroke-opacity:1"
       d="M 39.999999,150 79.999998,140 110,150 Z"
       id="path2025" />
  </g>
</svg>
